Coordinates
version=1
nRows=17
nColumns=36
inDegrees=yes

Units are S.I. units (second, meters, Newtons, ...)
If the header above contains a line with 'inDegrees', this indicates whether rotational values are in degrees (yes) or radians (no).

endheader
time	pelvis_tilt	pelvis_list	pelvis_rotation	pelvis_tx	pelvis_ty	pelvis_tz	hip_flexion_r	hip_adduction_r	hip_rotation_r	knee_angle_r	knee_angle_r_beta	ankle_angle_r	subtalar_angle_r	mtp_angle_r	hip_flexion_l	hip_adduction_l	hip_rotation_l	knee_angle_l	knee_angle_l_beta	ankle_angle_l	subtalar_angle_l	mtp_angle_l	lumbar_extension	lumbar_bending	lumbar_rotation	arm_flex_r	arm_add_r	arm_rot_r	elbow_flex_r	pro_sup_r	arm_flex_l	arm_add_l	arm_rot_l	elbow_flex_l	pro_sup_l
      0.00000000	      2.16203644	      2.03738942	      5.13611822	     -0.35655220	      1.39952279	     -0.03989952	     -4.04558293	     -0.53184681	     -2.43544342	      5.41026320	      0.09442691	     10.50854081	    -11.67258519	     -6.73946361	     -5.64635863	      0.66039041	      6.67935329	      1.16493241	      0.02033191	      6.04175229	     -6.57517481	     -6.73946361	     -9.68894463	     -2.30408920	     -1.59218369	    -18.51874031	    -23.12573163	     14.01848993	     78.22649835	     86.84694433	    -26.70731118	    -22.04357029	      8.81848463	     97.88144042	     96.06002584
      0.01666670	     -1.23085072	      1.15538624	      5.54480163	     -0.35452643	      1.39210040	     -0.04032917	     -0.58633313	      0.16743820	     -2.68329035	      5.94756662	      0.10380462	     12.60063979	     -9.47753704	     -6.76650713	     -1.76619991	      0.32487578	      7.83935113	      1.39485077	      0.02434474	      6.39105660	     -5.44147417	     -6.76650713	     -4.48584026	     -1.74262220	     -1.00137876	    -21.30523990	    -24.89737196	     14.77456529	     79.60983572	     87.54888872	    -28.75151675	    -21.62665627	      8.93164487	     99.91372564	     96.47226772
      0.03333330	     -1.90492301	      1.48464458	      5.42716966	     -0.35441379	      1.39212592	     -0.03917034	     -0.63284624	     -0.32448404	     -3.14836125	      5.03074626	      0.08780309	     13.08067799	     -8.53124837	     -6.91868062	     -1.01832628	      0.68365602	      7.21761149	      1.29504693	      0.02260283	      6.79962805	     -4.27019888	     -6.91868062	     -3.19552169	     -2.42377009	     -0.79855217	    -21.83802249	    -24.96428232	     14.45427831	     79.35135387	     85.78383707	    -29.51230886	    -22.13613177	      8.63685824	    100.78001724	     93.46457970
      0.05000000	     -2.00965628	      1.63272497	      5.11111847	     -0.35496239	      1.39128202	     -0.03844680	     -0.65031095	     -0.43265268	     -3.39337618	      4.58526948	      0.08002805	     13.61136811	     -7.18527271	     -7.07842045	     -1.24107965	      0.79140327	      6.88964089	      0.88102461	      0.01537678	      6.92982713	     -4.00453974	     -7.07842045	     -2.95743709	     -2.60957149	     -1.22561990	    -21.48734084	    -25.11632924	     14.15984133	     79.73606674	     86.96147422	    -30.43814085	    -21.24111297	      6.79025563	    100.80381180	     92.52632742
      0.06666670	     -2.26241558	      1.62713736	      4.87682640	     -0.35518875	      1.38712744	     -0.03777266	     -0.33267088	     -0.36188784	     -3.03878949	      4.21242434	      0.07352067	     13.77530782	     -6.95956575	     -7.07465927	     -1.10742379	      0.85543756	      6.91346049	      0.73697202	      0.01286259	      7.37818012	     -3.91233207	     -7.07465927	     -2.68049661	     -2.59982444	     -0.68168688	    -21.27802769	    -25.31872653	     14.17652119	     79.55461574	     86.51721368	    -30.72414145	    -20.99874466	      6.66955572	    100.97952936	     91.60923862
      0.08333330	     -2.43438203	      1.60669629	      4.81232406	     -0.36196194	      1.38446611	     -0.03364717	      0.16318703	     -0.24003760	     -3.02209996	      4.42295039	      0.07719505	     14.04760635	     -6.87533619	     -7.07701601	     -0.83018645	      0.76709200	      6.87594395	      0.75981723	      0.01326131	      7.73090730	     -3.94104990	     -7.07701601	     -2.78837090	     -2.62409445	     -0.71035010	    -20.91346609	    -25.38668685	     14.16838715	     79.75459343	     86.76675128	    -30.30414258	    -21.14346209	      6.30177283	    100.74652789	     91.73407776
      0.10000000	     -2.40138667	      1.55546763	      4.73464255	     -0.35504000	      1.38428190	     -0.03095026	      0.14906471	     -0.03484517	     -3.14990969	      4.70561790	      0.08212853	     14.12977383	     -6.90412113	     -7.07806893	     -0.98275052	      0.53093487	      6.85884837	      0.77230035	      0.01347918	      7.93332739	     -3.98709796	     -7.07806893	     -2.66982710	     -2.63537319	     -0.54613664	    -21.27660971	    -25.33851758	     14.29894516	     79.72572062	     86.89384188	    -30.61753120	    -21.25642508	      6.08662695	    100.71061504	     91.79079389
      0.11666670	     -3.05993141	      1.57813142	      4.49910926	     -0.36181694	      1.38415946	     -0.03330703	      1.12495377	     -0.04916714	     -3.18675693	      5.17884014	      0.09038781	     14.56761807	     -6.47462794	     -7.08963467	     -0.25345923	      0.59899667	      6.70583611	      0.87401563	      0.01525445	      8.18496518	     -3.97859521	     -7.08963467	     -2.13024361	     -2.71605103	     -0.47417537	    -21.18825405	    -25.46010511	     14.42377202	     79.70101212	     88.05327113	    -30.56582622	    -21.16488498	      5.58265103	    100.83554991	     92.39810542
      0.13333330	     -3.13393544	      1.57051379	      4.63056342	     -0.36181805	      1.38430689	     -0.03345637	      1.11670038	      0.01565423	     -3.30003714	      5.15151819	      0.08991095	     14.65448001	     -6.23594428	     -7.22565276	     -0.10548452	      0.53254298	      6.92268809	      0.93748422	      0.01636219	      8.11789488	     -4.12361984	     -7.22565276	     -2.19048580	     -2.79313147	     -1.03152982	    -20.66153639	    -25.57024630	     14.71145128	     79.48040848	     92.63846492	    -30.70968766	    -20.67732525	      4.85699141	    100.83372728	     94.88881657
      0.15000000	     -3.43257920	      1.62972402	      4.74464892	     -0.36192488	      1.38110992	     -0.03375403	      1.52061980	     -0.05277867	     -3.23915577	      5.28993227	      0.09232674	     14.85675110	     -6.13146954	     -7.24155564	      0.31665680	      0.61503696	      7.22081738	      1.10089088	      0.01921417	      8.15979268	     -4.51304973	     -7.24155564	     -2.00713009	     -2.85674255	     -0.91741943	    -21.15744415	    -25.52635983	     14.33089030	     80.02763797	     91.74623168	    -30.07249330	    -21.04586301	      5.54138375	    100.90104006	     94.17899936
      0.16666670	     -3.58542848	      1.76110608	      4.77716441	     -0.36171821	      1.38397978	     -0.03352988	      1.81461494	     -0.12564121	     -2.70016810	      5.17298446	      0.09028561	     15.03030600	     -5.79939164	     -7.31223914	      0.59209973	      0.75404961	      7.38241073	      1.28395650	      0.02240927	      8.15130801	     -4.36583339	     -7.31223914	     -1.83197837	     -2.96137170	     -0.97967091	    -21.22939050	    -25.45500246	     14.55268017	     80.11557643	     87.81668485	    -29.94847782	    -21.04552625	      5.97859360	    100.88714685	     90.00790552
      0.18333330	     -3.61682836	      1.83413700	      5.03968843	     -0.36106968	      1.39100105	     -0.03379474	      1.72476166	     -0.22872939	     -2.77266636	      4.93605033	      0.08615033	     14.96386180	     -5.34902897	     -7.35204120	      0.83235497	      0.86238391	      7.97305306	      1.48086775	      0.02584602	      7.78058199	     -4.91299773	     -7.35204120	     -1.68773631	     -3.04493945	     -1.35925598	    -20.89130559	    -25.12407462	     14.58182569	     79.41161974	     91.22015606	    -29.80646288	    -20.58469916	      5.46023339	    100.07135649	     94.00806224
      0.20000000	     -3.59992632	      2.01439315	      5.00163293	     -0.36152269	      1.38716684	     -0.03362297	      1.78772638	     -0.41420726	     -2.48020846	      5.14551217	      0.08980613	     14.84982172	     -5.32094889	     -7.36437119	      0.86940757	      1.06790039	      7.94976265	      1.73799258	      0.03033369	      7.76609248	     -4.69937661	     -7.36437119	     -1.77431690	     -3.17777940	     -1.29055071	    -20.76228340	    -24.89031272	     14.62180777	     78.90887933	     90.23279009	    -29.41633748	    -20.50184809	      5.71462915	     99.49354947	     92.98715266
      0.21666670	     -3.62618020	      2.11692298	      5.17320353	     -0.36193800	      1.38084840	     -0.03386970	      1.89994601	     -0.55683697	     -2.59741187	      5.46083003	      0.09530946	     15.12589026	     -5.16505102	     -7.37413241	      1.10959471	      1.23490163	      8.39838288	      2.03090514	      0.03544598	      7.55381298	     -5.44428460	     -7.37413241	     -1.83101056	     -3.25568771	     -1.27446120	    -21.22541459	    -24.95224117	     14.37115999	     79.84109818	     88.95972130	    -29.90642374	    -20.22147609	      5.29266692	    100.11973625	     91.77273536
      0.23333330	     -3.83210081	      2.18691322	      5.22339373	     -0.36154501	      1.38416212	     -0.03373003	      2.18568994	     -0.69637892	     -2.68174689	      5.86177708	      0.10230731	     15.23174244	     -5.02763464	     -7.41559229	      1.42348229	      1.29339704	      8.50524884	      2.19500103	      0.03831000	      7.38965631	     -5.61950677	     -7.41559229	     -1.56522105	     -3.39824958	     -1.54162408	    -21.04130743	    -24.94718118	     14.56021837	     79.79228912	     90.22023254	    -30.58932210	    -19.75841295	      4.43528372	    100.32793682	     93.64878293
      0.25000000	     -3.95622460	      2.15038714	      5.09539085	     -0.36156031	      1.38143070	     -0.03383425	      2.49023419	     -0.73994131	     -2.80835667	      6.26957267	      0.10942469	     15.34945549	     -5.08089656	     -7.46316760	      1.56825769	      1.28151917	      8.28949142	      2.20857050	      0.03854683	      7.58510845	     -5.56462091	     -7.46316760	     -1.59709804	     -3.26627870	     -1.45041387	    -21.19297850	    -25.01964387	     14.38536613	     80.11287783	     90.05961832	    -30.68533310	    -19.73680736	      4.40015935	    100.38585188	     93.69753110
      0.26666670	     -4.04339260	      2.10899745	      4.88918026	     -0.36137430	      1.38135700	     -0.03371953	      2.71507246	     -0.76060697	     -2.90759787	      6.61225741	      0.11540566	     15.43527271	     -5.25614505	     -7.47042370	      1.69906507	      1.23646809	      8.02144465	      2.18033233	      0.03805398	      7.77404864	     -5.46610831	     -7.47042370	     -1.59010427	     -3.13919337	     -1.19829507	    -21.38324551	    -25.02390697	     14.26486259	     80.31041272	     87.50156605	    -30.90742803	    -19.49422921	      4.34460375	    100.63955657	     90.95589162
